<?xml version="1.0" encoding="UTF-8" standalone="no"?>
<svg
   width="800"
   version="1.0"
   height="500"
   id="svg18"
   sodipodi:docname="arg.svg"
   inkscape:version="1.3.2 (091e20e, 2023-11-25, custom)"
   xmlns:inkscape="http://www.inkscape.org/namespaces/inkscape"
   xmlns:sodipodi="http://sodipodi.sourceforge.net/DTD/sodipodi-0.dtd"
   xmlns:xlink="http://www.w3.org/1999/xlink"
   xmlns="http://www.w3.org/2000/svg"
   xmlns:svg="http://www.w3.org/2000/svg">
  <defs
     id="defs18" />
  <sodipodi:namedview
     id="namedview18"
     pagecolor="#ffffff"
     bordercolor="#000000"
     borderopacity="0.25"
     inkscape:showpageshadow="2"
     inkscape:pageopacity="0.0"
     inkscape:pagecheckerboard="0"
     inkscape:deskcolor="#d1d1d1"
     inkscape:zoom="1"
     inkscape:cx="467"
     inkscape:cy="193.5"
     inkscape:window-width="1920"
     inkscape:window-height="1009"
     inkscape:window-x="1352"
     inkscape:window-y="-8"
     inkscape:window-maximized="1"
     inkscape:current-layer="svg18" />
  <rect
     width="500"
     fill="#74acdf"
     height="312.5"
     id="rect1"
     x="0"
     y="0"
     style="stroke-width:0.625" />
  <rect
     y="104.16875"
     width="500"
     fill="#ffffff"
     height="104.16875"
     id="rect2"
     x="0"
     style="stroke-width:0.625" />
  <g
     id="rays"
     transform="scale(0.62500001)">
    <path
       id="ray1"
       stroke-width="1.1116"
       stroke="#85340a"
       fill="#f6b40e"
       d="m 396.84,251.31 28.454,61.992 c 0,0 0.4896,1.185 1.28,0.8586 0.7902,-0.3267 0.2988,-1.5116 0.2988,-1.5116 l -23.715,-63.956 m -0.68,24.12 c -0.3465,9.4278 5.4526,14.613 4.6943,23.032 -0.7569,8.42 3.8673,13.18 4.9396,16.454 1.0733,3.2744 -1.16,5.2323 -0.198,5.6982 0.96336,0.4662 3.07,-2.1207 2.3833,-6.7756 -0.68675,-4.6549 -4.2204,-6.0368 -3.3898,-16.32 0.83,-10.283 -4.206,-12.678 -2.98,-22.058" />
    <use
       xlink:href="#ray1"
       transform="rotate(22.5,400,250)"
       id="use2" />
    <use
       xlink:href="#ray1"
       transform="rotate(45,400,250)"
       id="use3" />
    <use
       xlink:href="#ray1"
       transform="rotate(67.5,400,250)"
       id="use4" />
    <path
       id="ray2"
       fill="#85340a"
       d="m 404.31,274.41 c 0.45334,9.0538 5.5867,13.063 4.5787,21.314 2.2133,-6.5249 -3.1233,-11.583 -2.82,-21.22 m -7.6487,-23.757 19.487,42.577 -16.329,-43.887" />
    <use
       xlink:href="#ray2"
       transform="rotate(22.5,400,250)"
       id="use5" />
    <use
       xlink:href="#ray2"
       transform="rotate(45,400,250)"
       id="use6" />
    <use
       xlink:href="#ray2"
       transform="rotate(67.5,400,250)"
       id="use7" />
  </g>
  <use
     xlink:href="#rays"
     transform="rotate(90,250,156.25001)"
     id="use8" />
  <use
     xlink:href="#rays"
     transform="rotate(180,250,156.25001)"
     id="use9" />
  <use
     xlink:href="#rays"
     transform="rotate(-90,250,156.25001)"
     id="use10" />
  <circle
     stroke="#85340a"
     cy="156.25"
     cx="250"
     stroke-width="0.9375"
     fill="#f6b40e"
     id="circle10"
     r="17.36125" />
  <path
     id="loweyecontour"
     fill="#843511"
     d="m 255.91875,152.5375 c -1.18542,2e-5 -2.32067,0.51364 -2.98825,1.58201 1.33544,1.20168 4.28532,1.33237 6.28876,-0.13673 -0.86769,-0.93463 -2.11531,-1.44531 -3.30076,-1.44531 z m -0.0195,0.27344 c 1.15388,-0.0209 2.23233,0.50903 2.38282,1.03513 -1.33545,1.469 -3.46925,1.34144 -4.8047,0.27344 0.58426,-0.93481 1.52446,-1.29232 2.42188,-1.30863 z"
     style="stroke-width:0.625" />
  <use
     xlink:href="#uppalpebra"
     transform="matrix(-1,0,0,1,500.15626,0)"
     id="use11" />
  <use
     xlink:href="#eyebrow_nose"
     transform="matrix(-1,0,0,1,500.15626,0)"
     id="use12" />
  <use
     xlink:href="#pupil"
     transform="translate(11.78875)"
     id="use13" />
  <use
     xlink:href="#lowpalpebra"
     transform="matrix(-1,0,0,1,500.15626,0)"
     id="use14" />
  <path
     d="m 247.34375,158.65001 c -0.57088,0.10416 -0.97656,0.61079 -0.97656,1.19137 0,0.66337 0.54843,1.19137 1.21094,1.19137 0.39167,0 0.75155,-0.1855 0.97657,-0.50781 0.46219,0.34759 1.10288,0.38444 1.4453,0.39063 0.0527,0.001 0.12071,0 0.15626,0 0.34243,-0.006 0.98312,-0.0431 1.44532,-0.39063 0.22499,0.32231 0.58488,0.50781 0.97655,0.50781 0.6625,0 1.21094,-0.52805 1.21094,-1.19137 0,-0.58062 -0.40574,-1.08725 -0.97657,-1.19137 0.32063,0.11305 0.52735,0.4228 0.52735,0.76174 0,0.44213 -0.35703,0.80076 -0.80074,0.80076 -0.42525,0 -0.77583,-0.33761 -0.80075,-0.76176 -0.1304,0.26024 -0.64632,1.03444 -1.66013,1.07425 -1.01387,-0.0397 -1.52975,-0.81399 -1.66013,-1.07425 -0.025,0.42413 -0.37553,0.76176 -0.80074,0.76176 -0.44376,0 -0.80076,-0.35866 -0.80076,-0.80076 0,-0.3389 0.20672,-0.64863 0.52733,-0.76174 z"
     fill="#85340a"
     id="path14"
     style="stroke-width:0.625" />
  <path
     d="m 248.65001,162.20626 c -1.33626,0 -1.86432,1.21049 -3.06638,2.01175 0.66793,-0.26646 1.19349,-0.79332 2.12888,-1.32814 0.935,-0.534 1.7323,0.11719 2.26561,0.11719 h 0.0195 c 0.53326,0 1.33063,-0.651 2.26563,-0.11719 0.93544,0.53494 1.48051,1.06169 2.14844,1.32814 -1.20206,-0.80126 -1.74974,-2.01175 -3.08594,-2.01175 -0.26662,0 -0.79474,0.14409 -1.32813,0.41015 h -0.0195 c -0.53333,-0.26652 -1.06143,-0.41015 -1.32811,-0.41015 z"
     fill="#85340a"
     id="path15"
     style="stroke-width:0.625" />
  <path
     d="m 248.20001,163.7875 c -0.52744,0.0234 -1.22476,0.12922 -2.22657,0.4297 2.40456,-0.53397 2.93513,0.27343 4.00388,0.27343 h 0.0195 c 1.06876,0 1.59926,-0.8075 4.00387,-0.27343 -2.6715,-0.80126 -3.20262,-0.27345 -4.00387,-0.27345 h -0.0195 c -0.50079,0 -0.89824,-0.19524 -1.77737,-0.15625 z"
     fill="#85340a"
     id="path16"
     style="stroke-width:0.625" />
  <path
     d="m 246.09376,164.20001 c -0.15513,0.002 -0.3242,0.003 -0.50781,0.0195 2.80499,0.26728 1.45663,1.875 4.39449,1.875 h 0.0195 c 2.93794,0 1.60907,-1.60776 4.41406,-1.875 -2.93793,-0.26663 -2.00912,1.46487 -4.41406,1.46487 h -0.0195 c -2.25468,0 -1.55994,-1.51343 -3.88674,-1.48437 z"
     fill="#85340a"
     id="path17"
     style="stroke-width:0.625" />
  <path
     d="m 252.40625,168.5375 c 0,-1.32712 -1.07706,-2.40405 -2.40393,-2.40405 -1.32706,0 -2.40394,1.07688 -2.40394,2.40405 0.26437,-1.11312 1.26037,-1.89955 2.40394,-1.89955 1.14581,0 2.14001,0.78662 2.40393,1.89955 z"
     fill="#85340a"
     id="path18"
     style="stroke-width:0.625" />
  <path
     id="eyebrow_nose"
     fill="#85340a"
     d="m 239.20626,152.5125 c 3.07162,-2.67056 6.94375,-3.07168 9.08124,-1.06787 0.52313,0.70045 0.85832,1.44937 0.99588,2.231 0.26888,1.52063 -0.20644,3.16356 -1.39794,4.84744 0.13444,-9.6e-4 0.40219,0.13276 0.5355,0.26662 1.06044,-2.0275 1.43544,-4.11006 1.0875,-6.09086 -0.0911,-0.5175 -0.23344,-1.02688 -0.41849,-1.52232 -2.93794,-2.40326 -6.94375,-2.67057 -9.88187,1.33606 z"
     style="stroke-width:0.625" />
  <path
     id="uppalpebra"
     fill="#85340a"
     d="m 244.01251,151.71251 c 1.73544,0 2.13662,0.40106 2.93792,1.06874 0.80207,0.66769 1.20208,0.53382 1.33545,0.66769 0.13275,0.13388 0,0.53381 -0.26662,0.39993 -0.26663,-0.13386 -0.80206,-0.39993 -1.60207,-1.06787 -0.80206,-0.66849 -1.60207,-0.66767 -2.40393,-0.66767 -2.40393,0 -3.73938,2.00287 -4.00588,1.86917 -0.26662,-0.13388 1.33544,-2.2703 4.00588,-2.2703 z"
     style="stroke-width:0.625" />
  <use
     xlink:href="#loweyecontour"
     transform="translate(-11.988125)"
     id="use18" />
  <circle
     id="pupil"
     cy="153.84375"
     cx="244.08749"
     fill="#85340a"
     r="1.201875"
     style="stroke-width:0.625" />
  <path
     id="lowpalpebra"
     fill="#85340a"
     d="m 240.80625,154.65001 c 2.27045,1.73643 4.54062,1.60274 5.87608,0.80124 1.33543,-0.80124 1.33543,-1.06787 1.06874,-1.06787 -0.26663,0 -0.53324,0.26663 -1.60206,0.80063 -1.06875,0.53494 -2.67064,0.53494 -5.34126,-0.53381 z"
     style="stroke-width:0.625" />
</svg>
